<svg xmlns="http://www.w3.org/2000/svg" width="300" height="50" viewBox="0 0 300 50" fill="none"><path fill-rule="evenodd" clip-rule="evenodd" d="M26.6219 17.6925V11.463C26.6219 10.2801 28.0251 9.65657 28.9035 10.4488C29.8103 11.2671 30.4488 12.3666 30.6503 13.6088C30.9242 15.2977 30.4754 16.9305 29.3859 18.206C29.2273 18.3916 29.058 18.565 28.8793 18.7259C28.0111 19.5077 26.6219 18.8609 26.6219 17.6925ZM35.9199 29.1384C33.8049 31.3317 31.1552 32.7952 28.2534 33.4093C27.4115 33.5875 26.6219 32.9302 26.6219 32.0695V24.4457C26.6219 23.8439 27.0147 23.3078 27.5931 23.1412C29.2541 22.6623 30.7574 21.7059 31.907 20.3596C33.615 18.3597 34.3498 15.7058 33.9232 13.0778C33.2262 8.78193 29.4977 5.65149 25.0508 5.63486H24.9899C20.8166 5.63486 16.8896 7.2524 13.9258 10.194C10.9474 13.1497 9.29878 17.0883 9.28295 21.2844C9.25371 29.0013 14.8232 35.4567 22.1637 36.7968C22.8207 36.9167 23.3063 37.4748 23.3063 38.1425V45.5235C23.3063 45.8729 23.1177 46.0918 23.005 46.1911C22.89 46.2933 22.6426 46.4572 22.2836 46.4127C11.5841 45.0795 3.51573 35.9302 3.51573 25.1298C3.51573 13.3131 13.1217 3.69832 24.9349 3.6825C33.1253 3.72676 39.7908 10.0475 40.1149 18.0844C40.282 22.2333 38.7922 26.159 35.9199 29.1384ZM21.5772 33.2545C15.8467 31.6104 11.8084 25.9384 12.7294 19.5217C13.0385 17.3697 13.9271 15.3261 15.2876 13.6305C16.9467 11.5628 19.1296 10.1269 21.5616 9.43146C22.4352 9.18168 23.3063 9.83632 23.3063 10.7448V31.938C23.3063 32.8397 22.444 33.5032 21.5772 33.2545ZM43.4278 17.9511C43.0323 8.14205 34.9261 0.427031 24.9641 0.366933V0.36586C24.9564 0.36586 24.9488 0.366397 24.9413 0.366397C24.9344 0.366397 24.9274 0.36586 24.9204 0.36586V0.366933C11.2855 0.390811 0.20018 11.4898 0.20018 25.1298C0.20018 37.5995 9.51772 48.1635 21.8739 49.7025C22.0489 49.7245 22.2238 49.7352 22.3982 49.7352C23.8784 49.7352 25.3014 48.9598 26.0826 47.5881C26.4569 46.9313 26.6219 46.1752 26.6219 45.4194V38.2024C26.6219 37.5196 27.1282 36.9508 27.8037 36.8523C31.7919 36.2704 35.4501 34.4025 38.3069 31.4395C41.8132 27.8028 43.6317 23.0124 43.4278 17.9511Z" fill="#6D7356"></path><path fill-rule="evenodd" clip-rule="evenodd" d="M75.9589 14.1827C75.9589 9.2346 73.915 5.63089 67.9989 5.63089H65.202C63.1581 5.63089 62.405 6.43791 62.405 8.42784V19.6148C62.405 21.7124 63.1581 22.627 65.3635 22.627H67.9989C73.915 22.627 75.9589 19.0233 75.9589 14.1827ZM56.0049 32.5232V8.21267C56.0049 6.22275 54.7678 5.52358 52.4551 5.20082V3.69489H67.9989C77.4112 3.69489 82.4666 7.5135 82.4666 14.0751C82.4666 20.5292 77.4112 24.6169 67.9989 24.6169H65.3635C63.1581 24.6169 62.405 25.5312 62.405 27.6287V32.5232C62.405 34.5668 63.5885 35.2662 66.493 35.589V37.0949H52.4551V35.589L52.6594 35.5591C54.8406 35.2233 56.0049 34.5058 56.0049 32.5232ZM100.414 28.1129V26.3379C100.414 25.1008 100.037 24.4555 98.2624 24.6168C91.5392 25.316 90.0333 28.059 90.0333 30.318C90.0333 32.4155 91.324 34.2442 94.2286 34.2442C97.7244 34.2442 100.414 31.6627 100.414 28.1129ZM84.1708 31.5012C84.1708 27.2416 87.5971 24.458 98.416 22.9936L98.7461 22.9496C99.9835 22.7881 100.414 22.4117 100.414 21.1209V20.1529L100.412 19.9226C100.357 16.1928 98.9463 14.0753 95.573 14.0753C89.1726 14.0753 93.8519 21.067 88.581 21.067C86.6447 21.067 85.7304 19.8838 85.7304 18.2703C85.7304 14.129 91.4853 12.3542 97.0789 12.3542C103.426 12.3542 106.061 14.8821 106.061 21.7664V32.7922C106.061 34.6745 106.922 35.2122 108.374 34.6745V35.5352C107.782 36.7721 106.276 37.4176 104.716 37.4176C102.135 37.4176 100.629 35.8577 100.467 33.6526C100.467 33.061 100.037 32.9534 99.6068 33.545C97.8857 35.5889 94.8738 37.4176 91.2165 37.4176C87.5591 37.4176 84.1708 35.6965 84.1708 31.5012ZM117.088 7.0295C117.626 7.0295 117.949 7.35198 117.949 7.83625L117.895 11.7085L117.896 11.8047C117.92 12.8094 118.355 13.132 120.488 13.1589L121.367 13.1586C122.815 13.153 126.557 13.1376 126.966 13.1283L127.342 13.1188C127.663 13.1099 128.003 13.0988 128.353 13.086L129.132 13.0558L131.354 12.9549C132.793 12.884 133.905 12.8201 133.905 12.8201C135.303 12.5512 136.056 13.1967 136.056 14.5951V32.4156C136.056 34.6746 136.971 35.3738 139.498 35.6426V37.0949H126.966V35.6426L127.163 35.6205C129.542 35.3359 130.409 34.6152 130.409 32.4156V18.7788C130.409 16.3049 129.572 15.5996 126.966 15.423L120.799 15.2046L120.603 15.1971C118.334 15.1222 117.907 15.5572 117.895 17.0244L117.895 30.0438L117.897 30.2462C117.929 33.1899 118.466 35.0511 121.014 35.0511C122.09 35.0511 123.058 34.7283 123.865 34.0291C124.564 34.7283 124.618 35.3199 124.187 35.6426C123.112 36.6106 121.444 37.3637 119.078 37.3637C114.937 37.3637 112.247 35.1586 112.247 30.4793V16.6569C112.247 15.1259 111.833 14.7867 110.902 14.7746L108.375 14.7743V13.4299C111.817 12.3177 113.747 10.5798 115.398 7.75432L115.475 7.62108C115.743 7.13708 116.012 7.0295 116.443 7.0295H117.088ZM132.668 3.26418C134.482 3.26418 136.03 4.75857 136.03 6.62669C136.03 8.49481 134.482 9.9892 132.668 9.9892C130.853 9.9892 129.305 8.49481 129.305 6.62669C129.305 4.75857 130.853 3.26418 132.668 3.26418ZM156.709 19.6149C156.709 16.7643 155.311 14.1828 151.815 14.1828C147.566 14.1828 145.845 18.1627 145.845 21.3897C145.845 23.0811 146.364 23.5259 147.556 23.4898L150.847 23.3799L151.12 23.363C155.521 23.0756 156.709 22.1977 156.709 19.6149ZM139.767 24.9397C139.767 16.6567 146.006 12.3541 152.729 12.3541C158.269 12.3541 162.087 15.2584 162.087 19.5613C162.087 23.5411 158.753 24.5094 152.137 24.8319L147.566 25.101C146.544 25.1546 146.167 25.6386 146.167 26.8221C146.167 30.8019 150.201 34.029 155.203 34.029C157.408 34.029 159.99 33.4374 161.872 31.1247L163.002 32.093C161.98 34.029 158.376 37.4175 152.514 37.4175C145.791 37.4175 139.767 32.9534 139.767 24.9397ZM182.419 12.3002C186.453 12.3002 190.379 14.4517 190.379 21.3897V32.7922C190.379 34.6745 191.401 35.2661 192.961 34.8358V35.6428C192.261 36.8796 190.594 37.4175 189.034 37.4175C186.56 37.4175 184.732 36.0192 184.732 32.8458V22.6268C184.732 18.647 182.796 15.6885 179.192 15.6885C175.588 15.6885 173.437 18.647 173.437 22.6268V32.4158C173.437 34.6745 174.351 35.3737 176.879 35.6428V37.0948H164.347V35.6428L164.544 35.6206C166.923 35.3358 167.79 34.6151 167.79 32.4158V18.2703C167.79 15.7964 166.983 15.0433 164.347 15.2584V13.8601L171.286 12.4618C172.659 12.1976 173.409 12.815 173.436 14.0592L173.437 14.1289C173.437 16.0885 174.167 16.6399 174.857 15.8863L175.18 15.5289C176.262 14.3496 178.405 12.3002 182.419 12.3002ZM201.477 7.0295C202.015 7.0295 202.338 7.35198 202.338 7.83625L202.284 11.7445L202.285 11.8407C202.31 12.8924 202.786 13.1967 205.188 13.1967H209.114V15.4555L205.188 15.2406L204.992 15.2331C202.723 15.1581 202.295 15.5931 202.284 17.0603L202.284 29.9414C202.284 33.0609 202.768 35.0511 205.403 35.0511C206.479 35.0511 207.447 34.7283 208.254 34.0291C208.953 34.7283 209.006 35.3199 208.576 35.6426C207.501 36.6106 205.833 37.3637 203.467 37.3637C199.325 37.3637 196.636 35.1586 196.636 30.4793V16.6569C196.636 15.1259 196.222 14.7867 195.291 14.7746L192.764 14.7743V13.4299C196.206 12.3177 198.136 10.5798 199.786 7.75432L199.863 7.62108C200.132 7.13708 200.401 7.0295 200.831 7.0295H201.477ZM213.816 3.69489H217.822L234.961 31.7803H235.056V3.69489H238.537V37.0732H234.484L217.44 9.08328H217.345V37.0732H213.816V3.69489ZM253.352 12.3501C255.405 12.3501 257.311 12.8169 259.068 13.75C260.826 14.6834 262.242 16.0995 263.315 17.9969C264.388 19.8948 264.925 22.2128 264.925 24.9499C264.925 27.6879 264.388 30.0059 263.315 31.9033C262.242 33.8012 260.826 35.2167 259.068 36.1501C257.311 37.0832 255.405 37.55 253.352 37.55C251.267 37.55 249.346 37.0832 247.588 36.1501C245.83 35.2167 244.415 33.8012 243.342 31.9033C242.268 30.0059 241.732 27.6879 241.732 24.9499C241.732 22.2128 242.268 19.8948 243.342 17.9969C244.415 16.0995 245.83 14.6834 247.588 13.75C249.346 12.8169 251.267 12.3501 253.352 12.3501ZM268.051 12.8168L273.745 33.6299H273.931L280.698 12.8168H283.638L290.358 33.6299H290.545L296.285 12.8168H299.505L292.504 37.0834H288.725L282.145 17.2034L275.565 37.0834H271.785L264.785 12.8168H268.051ZM253.352 15.15C251.827 15.15 250.427 15.5082 249.152 16.2234C247.876 16.9395 246.857 18.036 246.095 19.5135C245.332 20.9915 244.952 22.8033 244.952 24.9499C244.952 27.0965 245.332 28.9094 246.095 30.3869C246.857 31.8646 247.876 32.9614 249.152 33.6767C250.427 34.3928 251.827 34.7501 253.352 34.7501C254.845 34.7501 256.229 34.3928 257.505 33.6767C258.78 32.9614 259.807 31.8646 260.585 30.3869C261.362 28.9094 261.752 27.0965 261.752 24.9499C261.752 22.8033 261.362 20.9915 260.585 19.5135C259.807 18.036 258.78 16.9395 257.505 16.2234C256.229 15.5082 254.845 15.15 253.352 15.15Z" fill="#2A2929"></path></svg>